<?xml version="1.0" standalone="no"?>
<!DOCTYPE svg PUBLIC "-//W3C//DTD SVG 20010904//EN"
 "http://www.w3.org/TR/2001/REC-SVG-20010904/DTD/svg10.dtd">
<svg version="1.0" xmlns="http://www.w3.org/2000/svg"
 width="500.000000pt" height="500.000000pt" viewBox="0 0 500.000000 500.000000"
 preserveAspectRatio="xMidYMid meet">

<g transform="translate(0.000000,500.000000) scale(0.100000,-0.100000)"
fill="#000000" stroke="none">
<path d="M2410 3801 c0 -5 9 -7 20 -4 19 5 20 0 20 -66 0 -67 1 -71 23 -70 16
1 18 2 5 6 -15 4 -18 16 -18 69 l0 64 29 0 c16 0 32 -6 34 -12 3 -8 6 -6 6 5
1 14 -8 17 -59 17 -33 0 -60 -4 -60 -9z"/>
<path d="M2227 3774 c3 -9 9 -11 12 -6 3 5 13 12 21 15 9 3 4 6 -12 6 -21 1
-26 -3 -21 -15z"/>
<path d="M2679 3773 c-12 -14 -12 -16 0 -8 11 6 13 3 8 -16 -4 -13 -7 -35 -8
-49 -1 -25 -1 -24 -14 5 -8 17 -14 23 -15 13 0 -29 49 -78 79 -78 29 0 71 36
70 61 0 8 -5 3 -10 -10 -14 -34 -18 -23 -9 24 4 22 9 31 10 20 1 -12 4 -15 7
-7 7 18 -24 62 -45 62 -16 -1 -16 -1 1 -11 20 -12 23 -65 5 -104 -9 -20 -18
-25 -37 -23 -22 3 -26 9 -29 41 -2 20 3 51 12 67 11 24 12 30 1 30 -7 0 -19
-8 -26 -17z"/>
<path d="M2262 3750 c0 -14 2 -19 5 -12 2 6 2 18 0 25 -3 6 -5 1 -5 -13z"/>
<path d="M2242 3725 c0 -16 2 -22 5 -12 2 9 2 23 0 30 -3 6 -5 -1 -5 -18z"/>
<path d="M2001 3721 c-10 -7 -11 -12 -1 -27 10 -16 11 -16 6 -1 -6 19 10 24
17 5 3 -7 4 -3 4 10 -1 24 -5 26 -26 13z"/>
<path d="M2272 3690 c0 -14 2 -19 5 -12 2 6 2 18 0 25 -3 6 -5 1 -5 -13z"/>
<path d="M2251 3668 c-1 -22 4 -28 19 -28 11 0 20 4 20 10 0 5 -6 7 -14 4 -9
-4 -16 3 -19 18 -4 21 -4 20 -6 -4z"/>
<path d="M3077 3605 c-32 -61 -34 -66 -17 -75 14 -8 19 -5 24 13 11 42 21 50
47 37 23 -11 23 -10 5 4 -27 22 -33 20 -51 -15 -29 -55 -27 -23 2 35 22 46 31
55 48 50 16 -4 17 -3 5 5 -24 17 -27 14 -63 -54z"/>
<path d="M1825 3640 c-3 -5 1 -10 10 -10 9 0 13 5 10 10 -3 6 -8 10 -10 10 -2
0 -7 -4 -10 -10z"/>
<path d="M2040 3648 c0 -4 4 -18 10 -32 9 -26 -3 -38 -13 -13 -3 6 -6 2 -6
-10 -1 -16 3 -20 19 -16 16 4 19 11 14 27 -8 25 -23 54 -24 44z"/>
<path d="M3170 3634 c8 -10 15 -20 16 -22 1 -2 5 1 8 7 4 5 -4 15 -16 22 -22
12 -22 11 -8 -7z"/>
<path d="M2117 3621 c-4 -17 -3 -21 5 -13 5 5 8 16 6 23 -3 8 -7 3 -11 -10z"/>
<path d="M1768 3610 c-15 -9 -13 -16 18 -67 19 -31 34 -63 34 -70 0 -10 4 -11
19 -1 18 11 18 12 0 41 -10 17 -16 34 -14 38 3 4 -2 9 -10 13 -12 4 -11 -4 6
-35 31 -62 16 -58 -20 5 -34 61 -38 74 -17 57 12 -10 13 -8 9 8 -3 12 -6 21
-7 21 0 0 -9 -5 -18 -10z"/>
<path d="M1845 3570 c-3 -5 -1 -10 4 -10 6 0 11 5 11 10 0 6 -2 10 -4 10 -3 0
-8 -4 -11 -10z"/>
<path d="M1900 3534 c0 -9 -8 -23 -17 -31 -16 -13 -16 -13 5 -3 18 9 33 50 17
50 -3 0 -5 -7 -5 -16z"/>
<path d="M3300 3508 l-22 -33 26 30 c43 50 39 21 -5 -34 -22 -29 -43 -50 -46
-47 -4 3 2 16 13 28 18 21 17 21 -8 -1 l-27 -24 36 -28 c20 -16 43 -29 52 -29
9 1 1 7 -16 15 -18 8 -33 19 -33 25 0 6 18 33 40 61 37 46 43 69 20 69 -5 0
-18 -15 -30 -32z"/>
<path d="M1580 3473 c-32 -30 -38 -41 -29 -53 9 -13 10 -12 5 3 -4 13 0 20 14
24 11 3 17 10 13 15 -15 26 18 -2 56 -46 53 -61 45 -74 -10 -15 l-41 44 38
-47 c40 -50 48 -55 60 -37 3 6 -9 27 -28 47 -61 66 -63 71 -37 80 14 6 18 11
11 16 -7 4 -29 -9 -52 -31z"/>
<path d="M3381 3493 c7 -12 15 -20 18 -17 3 2 -3 12 -13 22 -17 16 -18 16 -5
-5z"/>
<path d="M2452 3460 c-43 -19 -143 -112 -199 -184 -29 -38 -33 -40 -104 -47
-48 -5 -82 -15 -100 -28 l-27 -20 -38 30 c-28 22 -45 29 -63 24 -46 -12 -111
-66 -157 -133 -28 -40 -70 -84 -105 -109 -37 -27 -69 -61 -89 -95 -33 -56 -33
-62 -16 -213 3 -22 10 -103 16 -180 10 -122 16 -147 41 -197 25 -50 29 -68 29
-145 1 -224 32 -306 165 -431 117 -111 181 -138 435 -184 109 -20 157 -23 370
-22 232 0 250 2 342 26 190 52 319 142 375 265 25 53 28 71 31 198 2 95 8 150
18 172 10 21 17 86 21 194 6 153 8 165 35 215 34 65 37 131 8 198 -30 72 -58
103 -164 183 -97 73 -115 78 -116 36 0 -21 -14 -15 -51 23 -18 20 -70 67 -113
104 -77 66 -80 68 -103 53 -13 -9 -25 -14 -26 -12 -2 2 -24 38 -50 81 -120
195 -235 257 -365 198z m179 -48 c69 -44 136 -127 189 -237 57 -116 91 -226
72 -233 -7 -2 -9 -9 -6 -14 4 -6 9 -26 11 -44 3 -27 0 -32 -12 -28 -8 4 -15
11 -15 17 0 6 -3 7 -7 4 -3 -4 4 -19 18 -35 13 -15 17 -21 9 -14 -20 17 -49
15 -57 -4 -3 -9 2 -30 12 -46 12 -20 14 -33 7 -40 -7 -7 -17 2 -32 28 -14 26
-19 31 -16 15 4 -18 -13 -6 -71 50 l-76 74 -12 -27 c-8 -22 -14 -25 -23 -16
-7 7 -12 8 -12 4 0 -5 7 -14 17 -21 22 -17 8 -38 -17 -25 -31 17 -37 11 -10
-10 15 -12 20 -20 11 -20 -8 0 -23 8 -34 18 -19 17 -20 16 -7 -7 11 -22 11
-23 -9 -18 -14 3 -21 0 -21 -9 0 -21 -16 -17 -29 9 -11 21 -11 20 -6 -8 l5
-30 -25 30 c-28 34 -33 27 -9 -11 12 -18 14 -28 6 -36 -7 -7 -17 2 -32 32 -12
23 -24 40 -27 37 -2 -3 0 -15 6 -26 10 -17 9 -20 -4 -15 -9 4 -20 15 -26 25
-5 11 -16 19 -23 19 -19 0 -54 41 -67 78 -12 36 -24 39 -76 17 -48 -20 -50
-20 -63 21 -31 94 32 250 152 380 106 113 151 143 214 144 38 0 61 -7 95 -28z
m-605 -278 c82 -58 94 -78 94 -161 -1 -62 -2 -66 -15 -49 -8 11 -15 15 -15 9
0 -5 11 -22 25 -37 30 -32 31 -42 8 -51 -12 -4 -23 1 -33 16 -14 22 -29 37
-95 92 -27 23 -30 30 -28 81 l2 56 -35 0 c-29 0 -34 3 -34 23 0 29 11 67 19
67 3 0 21 -22 39 -48 47 -68 110 -137 118 -130 3 4 -23 42 -58 85 -36 43 -68
84 -73 92 -10 18 0 12 81 -45z m115 27 c-25 -34 -14 -52 11 -19 17 22 17 21 1
-18 l-18 -42 -35 31 c-19 17 -35 36 -35 41 0 6 16 16 35 23 57 19 64 16 41
-16z m-255 -7 c-3 -9 -6 -26 -6 -39 0 -19 -8 -26 -37 -34 -20 -6 -38 -9 -40
-7 -2 1 14 24 34 49 38 47 61 61 49 31z m1145 -103 c61 -60 90 -95 87 -108 -2
-10 -10 -18 -18 -18 -8 0 -18 -4 -22 -10 -5 -6 -8 -5 -8 3 0 13 -30 18 -30 5
0 -5 -4 -14 -9 -22 -8 -12 -12 -13 -25 -2 -14 12 -16 11 -14 -10 2 -16 -2 -24
-12 -24 -10 0 -19 19 -28 60 -7 33 -19 83 -27 111 -24 81 -18 83 30 12 25 -37
45 -76 45 -87 0 -11 5 -23 10 -26 6 -4 10 6 10 24 0 19 -16 53 -43 93 -59 86
-60 88 -47 88 6 0 52 -40 101 -89z m-1194 -49 c-24 -27 -52 -63 -62 -81 -19
-38 -22 -99 -6 -129 13 -25 31 -29 31 -7 0 8 -4 15 -9 15 -15 0 -21 45 -11 82
6 20 27 55 48 78 l37 42 -3 -55 c-4 -57 25 -147 47 -147 14 0 14 17 1 25 -5 3
-17 30 -25 60 -14 46 -14 58 -2 87 l14 33 7 -42 c8 -46 53 -115 86 -133 28
-15 25 2 -6 29 -28 25 -64 95 -63 126 0 15 3 13 13 -10 8 -16 34 -47 60 -68
70 -58 97 -128 44 -114 -15 4 -17 3 -8 -8 7 -8 7 -15 1 -19 -5 -4 -12 -2 -16
4 -3 5 -11 10 -18 10 -8 0 -8 -3 1 -12 19 -19 14 -30 -9 -23 -18 6 -19 5 -8
-14 16 -24 5 -39 -16 -21 -17 14 -21 0 -4 -17 7 -7 9 -23 5 -38 l-7 -26 -26
31 c-14 17 -28 29 -30 26 -3 -3 9 -22 26 -43 26 -32 41 -73 27 -73 -22 0 -42
21 -62 64 -13 29 -23 42 -23 31 0 -11 6 -31 14 -45 19 -34 18 -43 -4 -31 -10
6 -26 29 -35 52 -9 23 -19 39 -22 36 -3 -3 2 -21 10 -41 15 -36 15 -36 -10
-36 -20 0 -29 9 -44 43 -10 23 -19 36 -19 29 -1 -7 4 -22 10 -34 13 -24 7 -32
-20 -23 -11 3 -25 22 -32 43 -7 20 -14 32 -16 25 -2 -7 1 -21 7 -32 6 -12 7
-21 3 -21 -17 0 -32 16 -47 50 -15 32 -16 32 -11 7 l6 -29 -29 21 c-82 58 -83
130 -3 236 48 63 101 100 171 119 83 22 86 20 37 -32z m1350 -119 c-2 -57 2
-73 21 -100 25 -35 42 -42 42 -18 0 8 -5 15 -11 15 -24 0 -51 111 -30 124 10
7 85 -89 95 -122 11 -34 26 -26 16 9 -5 17 -25 50 -45 74 -43 53 -45 64 -4 28
39 -35 89 -120 89 -153 0 -18 3 -21 12 -12 20 20 -11 89 -67 151 -48 53 -48
54 -15 34 79 -48 154 -191 115 -219 -11 -8 -12 -14 -5 -19 5 -3 8 -11 4 -16
-3 -5 -10 -6 -16 -3 -6 4 -8 -1 -3 -16 6 -19 4 -22 -9 -17 -14 6 -16 3 -11
-16 6 -20 5 -21 -8 -4 -19 23 -30 22 -17 -3 7 -14 8 -20 0 -20 -6 0 -16 11
-22 25 -6 14 -15 25 -20 25 -5 0 -2 -13 7 -30 19 -36 19 -40 0 -40 -9 0 -18 8
-21 18 -21 62 -62 127 -119 185 -79 83 -83 105 -25 143 22 15 40 31 40 35 0 5
2 9 4 9 3 0 4 -30 3 -67z m-236 -46 c-8 -8 -11 -3 -11 19 1 25 2 27 11 11 8
-14 8 -22 0 -30z m-668 -117 c30 -58 117 -118 117 -80 0 6 -7 10 -17 10 -43 0
-113 112 -113 181 0 22 1 22 23 -7 12 -16 54 -61 93 -99 71 -70 97 -121 71
-137 -9 -6 -9 -8 1 -8 6 0 12 -6 12 -14 0 -9 -7 -12 -19 -9 -32 8 -36 -17 -6
-41 20 -16 25 -25 16 -30 -7 -5 -22 1 -37 15 -13 12 -24 18 -24 12 0 -6 12
-20 27 -31 15 -11 22 -22 15 -26 -6 -3 -24 8 -41 25 -17 17 -31 26 -31 22 0
-5 11 -20 25 -33 23 -22 24 -25 9 -33 -13 -8 -22 -4 -36 17 -11 14 -25 26 -31
26 -6 0 0 -11 12 -24 18 -19 19 -25 8 -29 -8 -3 -25 5 -38 19 -27 28 -40 23
-14 -6 18 -20 17 -20 -8 -20 -16 0 -33 10 -46 28 -11 15 -21 22 -21 15 0 -6 5
-15 10 -18 15 -9 12 -35 -5 -35 -8 0 -22 11 -31 25 -9 14 -19 23 -22 21 -3 -3
1 -12 8 -21 10 -13 9 -15 -9 -15 -28 0 -90 26 -114 48 -34 31 -57 89 -57 145
0 44 6 62 29 94 26 36 120 120 109 98 -49 -104 -59 -164 -35 -211 18 -35 55
-70 64 -61 3 4 -6 18 -20 31 -58 54 -46 162 29 251 l25 30 -8 -30 c-20 -74 9
-176 53 -184 18 -3 18 -2 -2 20 -23 25 -44 79 -44 111 0 10 7 35 16 56 l17 37
8 -45 c5 -25 19 -65 32 -90z m592 52 c-8 -9 -35 26 -35 46 0 9 8 4 21 -12 12
-15 18 -30 14 -34z m6 41 c13 -16 12 -17 -3 -4 -10 7 -18 15 -18 17 0 8 8 3
21 -13z m114 -38 c-33 -44 -36 -52 -33 -108 2 -33 8 -62 14 -64 7 -2 9 16 7
54 -3 47 0 65 18 93 l23 35 8 -40 c9 -41 54 -115 69 -115 15 0 10 11 -17 47
-26 35 -42 99 -30 128 4 12 20 0 68 -51 76 -81 105 -120 114 -157 5 -23 4 -26
-12 -22 -15 5 -14 3 4 -11 12 -9 22 -21 22 -26 0 -5 -10 -7 -22 -3 -21 6 -22
5 -5 -8 24 -20 23 -41 -2 -27 -32 16 -38 11 -11 -10 22 -17 23 -19 7 -25 -9
-4 -24 -2 -32 5 -9 7 -15 8 -15 2 0 -5 7 -13 16 -16 8 -3 12 -11 9 -16 -5 -8
-15 -6 -31 5 -13 8 -24 11 -24 6 0 -6 7 -14 17 -19 14 -8 13 -11 -7 -17 -17
-5 -27 -2 -38 11 -14 18 -14 18 -9 -4 9 -37 -22 -41 -50 -6 -24 30 -31 27 -13
-7 8 -15 7 -19 -4 -19 -8 0 -20 14 -28 30 -16 36 -31 40 -18 5 10 -27 10 -28
-14 -19 -9 3 -16 15 -16 25 0 10 -5 19 -11 19 -6 0 -9 -7 -5 -15 3 -9 0 -15
-9 -15 -19 0 -19 3 5 42 28 47 27 121 -4 175 -25 42 -25 66 -3 111 11 23 87
85 94 78 3 -2 -12 -25 -32 -51z m-358 -34 c-40 -60 -52 -120 -33 -164 8 -21
20 -37 25 -37 15 0 14 6 -5 35 -21 32 -12 85 25 149 l28 48 11 -31 c12 -33 77
-125 111 -155 35 -31 24 -10 -33 67 -29 40 -59 88 -65 107 l-12 35 52 -50 c71
-70 109 -123 109 -156 0 -15 5 -31 10 -34 18 -11 11 59 -10 93 -20 32 -20 33
-1 22 33 -17 63 -69 69 -116 4 -43 -9 -61 -22 -29 -3 8 -11 15 -18 15 -6 0 1
-13 16 -29 15 -16 23 -31 18 -35 -5 -3 -17 3 -27 14 -10 11 -23 20 -28 20 -6
0 2 -14 18 -30 22 -23 26 -33 17 -42 -9 -9 -17 -7 -35 10 -31 29 -46 28 -19
-1 32 -34 14 -43 -20 -10 -30 29 -39 22 -11 -9 26 -29 9 -31 -20 -2 -29 29
-38 22 -10 -8 15 -17 15 -18 -3 -18 -11 0 -30 7 -42 16 -23 16 -30 6 -10 -14
7 -7 8 -12 2 -12 -6 0 -21 11 -34 25 -27 29 -42 25 -15 -5 25 -28 -2 -27 -32
2 -23 22 -33 12 -11 -10 20 -20 -7 -14 -36 9 -19 15 -24 16 -20 5 6 -17 -4
-21 -21 -8 -6 4 -16 20 -23 36 -7 16 -15 26 -18 23 -3 -3 0 -15 6 -27 14 -27
11 -30 -18 -19 l-24 9 22 36 c27 43 31 120 11 182 -13 38 -13 45 1 59 17 16
140 80 147 76 2 -2 -8 -20 -22 -42z m-947 -142 c57 -27 150 -52 233 -64 30 -5
47 -12 47 -21 0 -27 77 -92 136 -114 77 -30 214 -32 292 -6 50 17 55 17 100 1
60 -22 264 -32 327 -16 37 9 54 9 91 -4 128 -43 247 -23 325 56 46 45 47 46
73 30 18 -11 26 -24 26 -44 l0 -29 -31 27 c-44 37 -49 23 -5 -15 21 -19 36
-41 36 -54 -1 -19 -4 -18 -31 12 -17 19 -33 32 -35 29 -3 -3 11 -23 31 -46 27
-30 36 -47 33 -68 l-3 -28 -29 43 c-16 23 -31 40 -33 38 -3 -3 9 -25 26 -50
17 -24 31 -51 31 -60 0 -29 -19 -26 -35 5 -9 17 -19 29 -21 26 -3 -3 2 -19 10
-36 20 -37 20 -41 2 -41 -8 0 -17 8 -20 17 -5 12 -9 14 -14 6 -5 -9 -22 -2
-57 20 -41 27 -58 32 -105 31 -82 -2 -110 -6 -105 -14 3 -4 -2 -13 -10 -20
-10 -9 -15 -9 -15 -1 0 6 -4 11 -9 11 -5 0 -7 -8 -5 -17 2 -10 0 -25 -6 -33
-9 -13 -11 -13 -19 0 -14 20 -25 6 -13 -17 5 -10 6 -27 1 -38 -4 -11 -8 -32
-8 -47 -1 -34 -7 -35 -32 -5 -22 26 -25 11 -4 -17 8 -11 15 -27 15 -35 -1 -12
-5 -10 -19 7 -26 30 -37 28 -17 -3 9 -13 16 -29 16 -35 0 -18 -15 -10 -32 18
-11 16 -18 21 -18 11 0 -8 5 -20 12 -27 9 -9 9 -15 0 -24 -9 -9 -17 -7 -33 8
-20 17 -22 17 -16 2 11 -31 -21 -20 -58 19 -24 26 -42 60 -56 107 -27 89 -41
110 -93 136 -75 36 -150 25 -228 -33 -23 -17 -32 -19 -53 -9 -15 7 -23 17 -20
23 4 6 0 9 -11 7 -13 -2 -20 5 -25 27 -4 17 -7 24 -8 16 -2 -21 -30 19 -31 44
-1 12 -4 15 -7 7 -7 -17 -33 3 -34 27 0 10 -2 11 -6 4 -8 -21 -23 -15 -23 10
-1 20 -2 21 -14 5 -15 -20 -26 -14 -26 14 0 10 -4 18 -10 18 -5 0 -10 -9 -10
-20 0 -12 -7 -20 -16 -20 -12 0 -15 7 -12 25 3 14 1 25 -3 25 -5 0 -9 -11 -9
-24 0 -13 -7 -26 -15 -30 -11 -4 -15 2 -15 26 0 40 -11 29 -20 -19 l-8 -38 -1
35 c-1 26 -4 31 -11 20 -5 -8 -7 -25 -4 -37 3 -12 -1 -31 -9 -43 -15 -21 -15
-21 -26 7 -10 25 -10 24 -5 -14 6 -47 -1 -56 -17 -20 -7 18 -8 15 -4 -15 7
-42 -6 -50 -24 -15 -11 21 -11 21 -8 -6 5 -29 -7 -45 -19 -26 -5 8 -9 7 -14
-2 -15 -23 -88 8 -140 60 -49 49 -70 102 -49 128 9 11 8 12 -5 7 -24 -9 -20
11 7 30 l22 17 -22 -6 c-14 -4 -23 -2 -23 5 0 7 9 14 20 17 11 3 20 10 20 15
0 5 -9 6 -20 3 -12 -4 -20 -2 -20 5 0 7 9 14 20 17 28 7 25 22 -2 16 l-23 -5
24 21 c21 19 21 21 5 21 -16 1 -15 3 6 16 l25 15 -30 -5 -30 -5 30 14 30 14
-27 1 c-20 0 -26 4 -21 15 3 9 8 14 12 12 3 -1 31 -14 61 -28z m780 -70 c0
-14 -16 -11 -29 5 -10 12 -8 13 8 9 12 -3 21 -9 21 -14z m870 -47 c0 -9 -7
-11 -22 -6 -33 10 -35 14 -14 30 21 15 36 5 36 -24z m-1206 -187 c38 -16 40
-19 51 -68 8 -38 49 -75 92 -83 28 -5 44 0 92 30 70 43 106 45 178 12 50 -24
52 -26 72 -93 41 -136 111 -201 208 -190 65 7 100 44 113 122 16 87 19 93 57
136 62 68 132 71 208 8 49 -40 86 -56 104 -44 7 4 11 -6 11 -26 0 -31 0 -32
-20 -14 -11 10 -23 16 -26 13 -3 -3 6 -15 20 -26 17 -13 26 -29 26 -48 -1 -28
-1 -28 -15 -10 -8 11 -17 17 -20 14 -3 -2 4 -13 15 -23 19 -18 28 -75 12 -75
-5 0 -19 11 -32 25 -13 14 -28 25 -34 25 -5 0 7 -18 28 -39 32 -33 37 -44 32
-67 l-7 -27 -35 34 c-43 42 -45 26 -2 -18 29 -30 31 -35 17 -49 -15 -14 -19
-12 -43 17 -15 17 -29 29 -32 26 -3 -2 9 -18 26 -35 52 -52 32 -79 -27 -36
l-38 28 33 -35 c32 -35 32 -35 12 -54 -20 -18 -21 -18 -60 14 -22 18 -40 28
-40 22 0 -5 14 -19 30 -31 35 -25 37 -31 10 -48 -17 -10 -24 -8 -54 18 -46 41
-58 38 -16 -5 28 -29 31 -35 17 -41 -11 -4 -32 6 -57 26 -23 18 -43 30 -46 27
-3 -3 11 -17 30 -32 40 -30 44 -40 20 -49 -10 -4 -30 3 -48 17 -43 33 -56 39
-56 30 0 -4 17 -19 37 -32 28 -18 33 -25 22 -32 -28 -17 -65 -9 -94 21 -16 17
-33 30 -39 30 -5 0 5 -15 23 -34 l34 -35 -37 -7 c-29 -5 -42 -2 -59 13 -38 35
-53 37 -23 5 l30 -32 -32 0 c-17 0 -34 4 -37 10 -3 5 -16 15 -28 21 -22 12
-22 11 1 -13 20 -22 21 -26 7 -32 -31 -11 -51 -6 -75 19 -13 14 -28 25 -33 25
-6 0 0 -11 13 -25 23 -24 23 -25 3 -25 -11 0 -32 9 -46 20 -36 29 -48 24 -12
-5 29 -24 29 -25 6 -25 -13 0 -41 14 -62 31 -21 17 -39 26 -39 20 0 -5 10 -17
22 -25 22 -16 22 -16 -10 -16 -19 0 -40 8 -54 22 l-21 21 5 -21 c8 -29 -22
-30 -47 -2 -21 23 -44 28 -25 5 21 -26 -19 -18 -42 8 -17 18 -19 19 -14 3 6
-17 2 -18 -55 -12 -86 10 -220 51 -303 92 -67 34 -166 102 -166 114 0 3 -14
20 -30 39 -48 52 -70 133 -70 256 0 58 2 105 5 105 3 0 24 -9 47 -21 76 -39
135 -14 208 86 46 63 111 80 184 50z"/>
<path d="M2574 3405 c-13 -32 67 -125 107 -125 33 0 21 38 -29 90 -50 52 -69
60 -78 35z m48 -17 c29 -24 69 -86 59 -92 -13 -8 -62 34 -84 73 -14 24 -15 31
-4 31 7 0 20 -6 29 -12z"/>
<path d="M2480 3323 c0 -9 3 -13 7 -10 3 4 12 2 20 -4 10 -9 13 -8 13 4 0 8
-7 18 -16 21 -22 9 -24 8 -24 -11z"/>
<path d="M2394 3305 c-20 -20 -23 -28 -14 -45 22 -40 60 -12 60 44 0 33 -14
33 -46 1z"/>
<path d="M2706 3218 c9 -31 24 -48 40 -48 20 0 17 34 -4 53 -27 25 -45 22 -36
-5z"/>
<path d="M2530 3194 c-17 -43 7 -75 45 -61 11 5 12 12 4 36 -6 16 -17 35 -25
42 -11 9 -16 6 -24 -17z"/>
<path d="M2352 3178 c-15 -15 -16 -55 0 -64 14 -9 38 23 38 53 0 25 -19 30
-38 11z"/>
<path d="M2752 3118 c3 -25 34 -36 51 -19 14 14 -9 41 -35 41 -14 0 -19 -6
-16 -22z m38 -3 c0 -8 -4 -15 -9 -15 -13 0 -22 16 -14 24 11 11 23 6 23 -9z"/>
<path d="M2810 3078 c0 -11 7 -16 20 -15 21 1 26 12 10 22 -5 3 -10 0 -10 -7
0 -9 -3 -9 -10 2 -8 13 -10 13 -10 -2z"/>
<path d="M2241 3037 c-25 -27 -27 -50 -6 -67 22 -18 45 5 45 46 0 43 -12 49
-39 21z"/>
<path d="M2696 3034 c-16 -42 6 -80 38 -68 20 8 21 33 0 62 -18 26 -30 28 -38
6z"/>
<path d="M2440 2981 c-24 -46 -4 -90 35 -75 18 7 19 34 3 69 -13 30 -24 32
-38 6z"/>
<path d="M2080 2893 c0 -5 9 -18 20 -28 11 -10 20 -14 20 -8 0 5 -9 18 -20 28
-11 10 -20 14 -20 8z"/>
<path d="M1732 2470 c0 -14 2 -19 5 -12 2 6 2 18 0 25 -3 6 -5 1 -5 -13z"/>
<path d="M1770 2475 c0 -8 4 -15 10 -15 5 0 7 7 4 15 -4 8 -8 15 -10 15 -2 0
-4 -7 -4 -15z"/>
<path d="M2755 2344 c-44 -7 -105 -11 -135 -9 l-55 4 40 -11 c44 -12 221 4
239 22 6 6 6 9 1 9 -6 -1 -46 -8 -90 -15z"/>
<path d="M2850 2315 c-14 -8 -34 -15 -45 -15 -11 0 -27 -5 -35 -11 -26 -17 61
2 100 22 19 10 28 18 20 18 -8 0 -26 -6 -40 -14z"/>
<path d="M2880 2119 c7 -11 14 -19 16 -16 7 7 -7 37 -17 37 -6 0 -5 -9 1 -21z"/>
<path d="M1940 2155 c-26 -42 -64 -70 -85 -61 -8 3 -15 1 -15 -4 0 -16 43 -11
66 8 26 21 68 82 61 88 -2 3 -15 -11 -27 -31z"/>
<path d="M2225 2020 c3 -5 8 -10 11 -10 2 0 4 5 4 10 0 6 -5 10 -11 10 -5 0
-7 -4 -4 -10z"/>
<path d="M2180 2008 c0 -9 5 -20 10 -23 13 -8 13 5 0 25 -8 13 -10 13 -10 -2z"/>
<path d="M1780 1996 c0 -2 7 -9 15 -16 9 -7 15 -8 15 -2 0 5 -7 12 -15 16 -8
3 -15 4 -15 2z"/>
<path d="M1750 1946 c0 -2 7 -9 15 -16 9 -7 15 -8 15 -2 0 5 -7 12 -15 16 -8
3 -15 4 -15 2z"/>
<path d="M2487 1900 c3 -11 7 -20 9 -20 2 0 4 9 4 20 0 11 -4 20 -9 20 -5 0
-7 -9 -4 -20z"/>
<path d="M2452 1885 c0 -16 2 -22 5 -12 2 9 2 23 0 30 -3 6 -5 -1 -5 -18z"/>
<path d="M2200 1811 c0 -5 5 -13 10 -16 6 -3 10 -2 10 4 0 5 -4 13 -10 16 -5
3 -10 2 -10 -4z"/>
<path d="M3327 3445 c3 -8 9 -12 14 -9 12 7 11 11 -5 17 -10 4 -13 1 -9 -8z"/>
<path d="M3494 3337 l-29 -32 33 29 c17 17 32 25 32 19 0 -14 -90 -96 -97 -89
-4 3 2 16 13 28 l19 22 -27 -20 c-24 -17 -25 -21 -11 -36 14 -16 17 -15 40 12
13 16 37 40 53 54 23 19 27 26 16 35 -9 8 -20 3 -42 -22z"/>
<path d="M1416 3311 c-4 -5 3 -7 14 -4 23 6 26 13 6 13 -8 0 -17 -4 -20 -9z"/>
<path d="M1402 3266 c2 -16 9 -31 16 -32 7 -1 8 0 2 3 -17 8 -11 23 8 17 13
-5 14 -4 3 4 -7 5 -17 16 -23 23 -6 10 -8 5 -6 -15z"/>
<path d="M1505 3268 c19 -12 19 -12 -5 -19 -25 -7 -25 -7 -2 -8 33 -1 26 -43
-8 -51 -21 -5 -22 -7 -8 -13 18 -6 58 34 58 59 0 16 -28 44 -43 44 -7 0 -3 -6
8 -12z"/>
<path d="M1458 3263 c7 -3 16 -2 19 1 4 3 -2 6 -13 5 -11 0 -14 -3 -6 -6z"/>
<path d="M3463 3212 c11 -10 20 -11 32 -4 15 8 13 10 -14 14 -28 4 -30 3 -18
-10z"/>
<path d="M3681 3163 c8 -4 3 -12 -12 -25 l-24 -19 28 12 c27 12 32 31 9 35 -9
2 -9 1 -1 -3z"/>
<path d="M3589 3117 c-35 -21 -36 -24 -22 -42 15 -19 15 -19 8 3 -3 12 -3 22
2 22 4 0 19 9 33 20 33 26 24 25 -21 -3z"/>
<path d="M1255 3069 c-7 -11 100 -130 110 -121 10 10 5 22 -10 22 -14 0 -20
12 -16 33 1 5 -2 6 -7 3 -5 -3 -19 5 -32 19 l-22 24 33 4 c30 3 29 4 -9 5 -26
1 -41 6 -37 12 3 6 4 10 1 10 -3 0 -8 -5 -11 -11z"/>
<path d="M1293 3073 c9 -2 25 -2 35 0 9 3 1 5 -18 5 -19 0 -27 -2 -17 -5z"/>
<path d="M1380 3062 l35 -5 -35 -7 -35 -6 33 -5 c25 -4 35 -1 43 13 9 16 6 18
-33 16 -42 -1 -42 -1 -8 -6z"/>
<path d="M3770 2990 c27 -27 25 -38 -7 -43 -26 -4 -25 -4 7 -7 26 -3 17 -5
-30 -10 l-65 -7 68 -1 c37 -1 67 2 67 8 0 21 -35 80 -47 80 -8 0 -6 -7 7 -20z"/>
<path d="M3640 2950 c0 -19 40 -90 51 -90 6 0 3 7 -5 16 -9 8 -16 20 -16 25 0
18 -2 24 -11 36 -7 8 -2 13 18 16 27 4 27 4 -4 6 -18 0 -33 -4 -33 -9z"/>
<path d="M1166 2854 c-22 -22 -20 -37 3 -22 17 10 23 9 40 -6 21 -19 21 -19
21 0 0 40 -37 56 -64 28z m49 -4 c8 -13 -5 -13 -25 0 -13 8 -13 10 2 10 9 0
20 -4 23 -10z"/>
<path d="M1137 2789 c-3 -12 0 -19 10 -19 8 0 12 4 8 9 -3 5 3 11 12 13 15 3
15 5 -4 10 -15 4 -23 1 -26 -13z"/>
<path d="M1220 2780 c0 -5 5 -10 11 -10 5 0 7 5 4 10 -3 6 -8 10 -11 10 -2 0
-4 -4 -4 -10z"/>
<path d="M1258 2763 c19 -7 14 -23 -5 -16 -15 5 -14 3 2 -10 18 -14 21 -14 27
1 10 26 10 28 -14 29 -13 0 -17 -1 -10 -4z"/>
<path d="M1208 2753 c7 -3 16 -2 19 1 4 3 -2 6 -13 5 -11 0 -14 -3 -6 -6z"/>
<path d="M1352 1778 c-31 -55 -38 -76 -31 -90 9 -16 12 -16 32 -4 12 7 48 24
79 36 31 13 55 27 52 32 -3 4 -15 1 -28 -7 -21 -14 -24 -13 -46 10 -21 23 -22
26 -7 49 14 20 14 26 3 35 -11 10 -22 -3 -54 -61z m17 -13 c-19 -36 -38 -65
-42 -65 -5 0 9 31 30 69 47 88 57 84 12 -4z m51 -36 c0 -8 -61 -31 -67 -25 -3
2 3 18 12 36 16 31 17 31 36 14 10 -9 19 -20 19 -25z"/>
<path d="M3478 1724 c-15 -15 -14 -18 10 -39 26 -23 27 -23 8 -44 -20 -22 -14
-37 24 -68 9 -8 11 -12 3 -13 -6 0 -19 7 -27 16 -9 8 -16 11 -16 5 0 -6 9 -15
20 -21 23 -12 44 -4 77 32 l23 24 -46 45 c-25 24 -49 52 -53 62 -6 16 -8 16
-23 1z m107 -113 c-7 -6 -105 90 -105 103 0 6 25 -14 55 -44 30 -29 52 -56 50
-59z m-35 12 c22 -28 15 -47 -15 -41 -23 4 -40 31 -32 52 9 23 22 20 47 -11z"/>
<path d="M1543 1575 c-46 -55 -50 -65 -36 -73 13 -8 24 0 53 37 20 25 44 52
53 60 13 10 15 17 6 27 -6 8 -14 14 -18 13 -3 0 -30 -29 -58 -64z m67 38 c-1
-13 -90 -106 -96 -100 -7 7 75 107 88 107 4 0 8 -3 8 -7z"/>
<path d="M3292 1563 c-8 -3 -9 -10 -5 -16 23 -32 49 -147 33 -147 -12 0 -57
39 -45 40 6 0 16 -5 23 -12 6 -6 14 -9 18 -6 3 3 -8 14 -25 24 -17 10 -31 22
-31 26 0 4 -7 8 -15 8 -7 0 -18 7 -23 16 -9 16 -11 16 -33 0 -13 -9 -18 -16
-11 -16 6 0 39 -20 73 -45 92 -68 110 -61 79 31 -12 33 -21 69 -22 81 -2 13
-3 23 -3 22 0 0 -6 -3 -13 -6z m-47 -98 c17 -14 26 -25 20 -25 -5 0 -23 11
-40 25 -16 13 -25 24 -20 24 6 0 24 -11 40 -24z"/>
<path d="M1740 1520 c0 -5 7 -10 15 -10 11 0 15 -11 14 -42 -1 -40 -2 -41 -9
-13 -6 24 -8 26 -9 8 0 -13 -5 -23 -10 -23 -5 0 -11 -10 -14 -21 -4 -17 -3
-19 6 -10 6 6 20 11 30 11 14 0 18 -5 14 -20 -8 -30 -2 -25 27 24 32 55 34 74
3 26 l-22 -35 -3 47 c-2 35 -8 51 -23 58 -13 7 -19 7 -19 0z"/>
<path d="M1827 1431 c-13 -26 -13 -31 -2 -16 8 11 22 25 31 31 11 9 12 13 2
17 -8 2 -20 -11 -31 -32z"/>
<path d="M1695 1419 c-14 -21 6 -56 43 -77 l39 -21 17 37 c13 29 13 33 1 18
-8 -11 -15 -23 -15 -28 0 -4 -5 -8 -11 -8 -6 0 -8 7 -5 16 5 14 4 15 -8 5 -17
-15 -36 -7 -36 15 0 8 -4 12 -10 9 -5 -3 -10 3 -10 14 0 10 6 22 13 24 9 4 9
6 0 6 -6 1 -15 -4 -18 -10z"/>
<path d="M3008 1404 c-18 -9 -28 -23 -28 -37 0 -24 17 -47 35 -47 5 0 2 5 -7
11 -24 13 -23 34 3 60 13 13 27 18 41 13 14 -4 18 -2 14 5 -9 15 -25 13 -58
-5z"/>
<path d="M1976 1384 c-6 -15 -4 -15 11 -3 10 7 20 15 22 16 2 2 -3 3 -11 3 -9
0 -19 -7 -22 -16z"/>
<path d="M2053 1358 c-2 -16 0 -19 6 -9 5 7 13 11 19 7 6 -3 13 -2 17 4 3 5 2
10 -4 10 -5 0 -16 2 -23 5 -9 4 -14 -2 -15 -17z"/>
<path d="M3000 1362 c0 -13 43 -26 62 -19 7 3 2 6 -12 6 -15 1 -31 6 -38 13
-9 9 -12 9 -12 0z"/>
<path d="M2066 1325 c-9 -26 -7 -32 5 -12 6 10 9 21 6 23 -2 3 -7 -2 -11 -11z"/>
<path d="M2770 1330 c0 -5 6 -7 14 -4 9 4 16 -3 19 -18 4 -21 4 -20 6 5 1 21
-4 27 -19 27 -11 0 -20 -4 -20 -10z"/>
<path d="M3088 1330 c6 -8 12 -20 12 -28 0 -12 -3 -12 -17 -1 -15 11 -16 11
-6 0 6 -7 9 -21 5 -30 -5 -14 -4 -14 11 -2 22 17 22 45 0 62 -15 11 -16 11 -5
-1z"/>
<path d="M1987 1317 c-3 -8 3 -14 16 -15 12 0 17 2 12 6 -6 4 -13 11 -16 15
-4 4 -9 2 -12 -6z"/>
<path d="M2036 1315 c-9 -26 -7 -32 5 -12 6 10 9 21 6 23 -2 3 -7 -2 -11 -11z"/>
<path d="M2220 1314 c0 -12 4 -14 13 -7 6 6 19 13 27 16 9 3 3 6 -12 6 -20 1
-28 -4 -28 -15z"/>
<path d="M2302 1313 c9 -2 19 -12 21 -21 3 -12 5 -10 6 6 1 17 -4 22 -21 21
-16 -1 -18 -3 -6 -6z"/>
<path d="M3038 1313 c7 -3 16 -2 19 1 4 3 -2 6 -13 5 -11 0 -14 -3 -6 -6z"/>
<path d="M2477 1303 c-4 -3 -7 -13 -7 -22 1 -14 2 -13 11 2 6 10 22 17 39 17
28 0 30 -3 30 -35 0 -28 -4 -35 -20 -35 -11 0 -20 -4 -20 -9 0 -5 9 -7 19 -4
15 4 20 -1 24 -24 2 -15 5 2 6 40 2 92 21 87 21 -6 l0 -73 -36 -2 c-20 -2 -42
2 -50 9 -11 9 -14 8 -14 -5 0 -13 11 -16 58 -16 l57 0 0 85 0 85 -56 0 c-31 0
-59 -3 -62 -7z"/>
<path d="M2782 1290 c0 -14 2 -19 5 -12 2 6 2 18 0 25 -3 6 -5 1 -5 -13z"/>
<path d="M2292 1275 c0 -16 2 -22 5 -12 2 9 2 23 0 30 -3 6 -5 -1 -5 -18z"/>
<path d="M2811 1264 c0 -11 3 -14 6 -6 3 7 2 16 -1 19 -3 4 -6 -2 -5 -13z"/>
<path d="M3020 1269 c0 -11 25 -22 39 -17 6 1 -1 8 -14 15 -14 6 -25 7 -25 2z"/>
<path d="M1940 1255 c0 -8 4 -15 10 -15 5 0 7 7 4 15 -4 8 -8 15 -10 15 -2 0
-4 -7 -4 -15z"/>
<path d="M2312 1240 c0 -14 2 -19 5 -12 2 6 2 18 0 25 -3 6 -5 1 -5 -13z"/>
<path d="M2791 1244 c0 -11 3 -14 6 -6 3 7 2 16 -1 19 -3 4 -6 -2 -5 -13z"/>
<path d="M2006 1235 c-2 -7 4 -15 17 -19 28 -7 30 -3 7 16 -15 13 -19 14 -24
3z"/>
<path d="M2282 1210 c0 -19 2 -27 5 -17 2 9 2 25 0 35 -3 9 -5 1 -5 -18z"/>
<path d="M2823 1213 c5 -24 -8 -32 -16 -10 -3 7 -6 5 -6 -5 -1 -21 -21 -24
-39 -6 -9 9 -12 9 -12 0 0 -19 26 -25 63 -16 32 9 32 10 19 34 -13 23 -13 23
-9 3z"/>
<path d="M2866 1205 c-3 -8 -1 -15 4 -15 6 0 10 7 10 15 0 8 -2 15 -4 15 -2 0
-6 -7 -10 -15z"/>
<path d="M2301 1183 c-1 -16 -6 -21 -18 -17 -16 5 -16 4 0 -6 23 -15 30 -8 24
22 -4 22 -4 22 -6 1z"/>
</g>
</svg>
